<svg xmlns="http://www.w3.org/2000/svg" width="46" height="46" viewBox="0 0 46 46">
  <g id="Grupo_14807" data-name="Grupo 14807" transform="translate(-24 -22)">
    <path id="Trazado_18428" data-name="Trazado 18428" d="M23,0A23,23,0,1,1,0,23,23,23,0,0,1,23,0Z" transform="translate(24 22)" fill="#f5f5f5"/>
    <g id="Grupo_8127" data-name="Grupo 8127" transform="translate(35 33)">
      <path id="Trazado_7292" data-name="Trazado 7292" d="M16,4A12,12,0,1,0,28,16,12,12,0,0,0,16,4Zm0,21.6A9.6,9.6,0,1,1,25.6,16,9.6,9.6,0,0,1,16,25.6Z" transform="translate(-4 -4)" fill="#004ace"/>
      <path id="Trazado_7293" data-name="Trazado 7293" d="M24.4,31.2A1.2,1.2,0,1,1,23.2,30,1.2,1.2,0,0,1,24.4,31.2Z" transform="translate(-11.2 -14.4)" fill="#004ace"/>
      <path id="Trazado_7294" data-name="Trazado 7294" d="M23.2,14A1.2,1.2,0,0,0,22,15.2v6a1.2,1.2,0,0,0,2.4,0v-6A1.2,1.2,0,0,0,23.2,14Z" transform="translate(-11.2 -8)" fill="#004ace"/>
    </g>
  </g>
</svg>
