<svg xmlns="http://www.w3.org/2000/svg" width="46" height="46" viewBox="0 0 46 46">
  <g id="Grupo_15736" data-name="Grupo 15736" transform="translate(-160 -687)">
    <path id="Trazado_18845" data-name="Trazado 18845" d="M23,0A23,23,0,1,1,0,23,23,23,0,0,1,23,0Z" transform="translate(160 687)" fill="#f5f5f5"/>
    <g id="Componente_84_758" data-name="Componente 84 – 758" transform="translate(171 698)">
      <path id="iconmonstr-help-3" d="M12,2A10,10,0,1,1,2,12,10.011,10.011,0,0,1,12,2Zm0-2A12,12,0,1,0,24,12,12,12,0,0,0,12,0Zm1.25,17A1.25,1.25,0,1,1,12,15.75,1.25,1.25,0,0,1,13.25,17ZM14.643,7a3.53,3.53,0,0,0-2.551-.955C9.912,6.047,8.5,7.6,8.5,10h2.011c0-1.486.829-2.013,1.538-2.013A1.322,1.322,0,0,1,13.415,9.21c.062.847-.39,1.277-.962,1.821A3.682,3.682,0,0,0,11.021,14.5h2.005a2.635,2.635,0,0,1,.935-2.178A4.48,4.48,0,0,0,15.5,9.3,3.13,3.13,0,0,0,14.643,7Z" fill="#004ace"/>
    </g>
  </g>
</svg>
