<svg xmlns="http://www.w3.org/2000/svg" width="46" height="46" viewBox="0 0 46 46">
  <g id="Grupo_14807" data-name="Grupo 14807" transform="translate(-24 -22)">
    <path id="Trazado_18428" data-name="Trazado 18428" d="M23,0A23,23,0,1,1,0,23,23,23,0,0,1,23,0Z" transform="translate(24 22)" fill="#f5f5f5"/>
    <g id="lock_closed" data-name="lock closed" transform="translate(36.778 34.778)">
      <path id="Trazado_10593" data-name="Trazado 10593" d="M23.753,25.444H10.123A3.014,3.014,0,0,1,7,22.561V16.271a3.014,3.014,0,0,1,3.123-2.883h1.42V9.98A5.206,5.206,0,0,1,16.938,5a5.206,5.206,0,0,1,5.4,4.98v3.407h1.42a3.014,3.014,0,0,1,3.123,2.883v6.291A3.014,3.014,0,0,1,23.753,25.444ZM10.123,14.96A1.37,1.37,0,0,0,8.7,16.271v6.291a1.37,1.37,0,0,0,1.42,1.311h13.63a1.37,1.37,0,0,0,1.42-1.311V16.271a1.37,1.37,0,0,0-1.42-1.311Zm3.123-1.573H20.63V9.98a3.562,3.562,0,0,0-3.691-3.407A3.562,3.562,0,0,0,13.247,9.98Z" transform="translate(-6.716 -5)" fill="#004ace"/>
      <path id="Trazado_10594" data-name="Trazado 10594" d="M0,0H20.444V18.872H0Z" transform="translate(0 0.786)" fill="none"/>
      <rect id="Rectángulo_5158" data-name="Rectángulo 5158" width="2.556" height="4.259" rx="1.278" transform="translate(9.37 11.561)" fill="#004ace"/>
    </g>
  </g>
</svg>
