<svg xmlns="http://www.w3.org/2000/svg" width="46" height="46" viewBox="0 0 46 46">
  <g id="Grupo_15727" data-name="Grupo 15727" transform="translate(-42 -553)">
    <circle id="Elipse_620" data-name="Elipse 620" cx="23" cy="23" r="23" transform="translate(42 553)" fill="#f5f5f5"/>
    <g id="chat_alt" data-name="chat alt" transform="translate(54 564.332)">
      <path id="Trazado_10597" data-name="Trazado 10597" d="M8.4,7H25.6A3.487,3.487,0,0,1,29,10.561v10.3a3.487,3.487,0,0,1-3.4,3.561H19.847L13.98,30.565a.911.911,0,0,1-1.026.214.988.988,0,0,1-.581-.911V24.418H8.4A3.487,3.487,0,0,1,5,20.858v-10.3A3.487,3.487,0,0,1,8.4,7ZM25.6,22.446a1.555,1.555,0,0,0,1.516-1.588v-10.3A1.555,1.555,0,0,0,25.6,8.973H8.4a1.555,1.555,0,0,0-1.516,1.588v10.3A1.555,1.555,0,0,0,8.4,22.446h4.915a.965.965,0,0,1,.942.986v4.054l4.536-4.752a.92.92,0,0,1,.666-.289Z" transform="translate(-6 -7.333)" fill="#004ace"/>
      <path id="Trazado_10598" data-name="Trazado 10598" d="M0,0H22.6V23.672H0Z" transform="translate(-0.058 -0.005)" fill="none"/>
      <circle id="Elipse_450" data-name="Elipse 450" cx="1.472" cy="1.472" r="1.472" transform="translate(4.844 6.879)" fill="#004ace"/>
      <circle id="Elipse_451" data-name="Elipse 451" cx="1.472" cy="1.472" r="1.472" transform="translate(9.788 6.879)" fill="#004ace"/>
      <circle id="Elipse_452" data-name="Elipse 452" cx="1.472" cy="1.472" r="1.472" transform="translate(14.693 6.879)" fill="#004ace"/>
    </g>
  </g>
</svg>
