<svg xmlns="http://www.w3.org/2000/svg" width="46" height="46" viewBox="0 0 46 46">
  <g id="Grupo_15724" data-name="Grupo 15724" transform="translate(-42 -653)">
    <circle id="Elipse_619" data-name="Elipse 619" cx="23" cy="23" r="23" transform="translate(42 653)" fill="#f5f5f5"/>
    <g id="key" transform="translate(59.893 670.025)">
      <path id="Trazado_18368" data-name="Trazado 18368" d="M14.052,18.891A6.166,6.166,0,0,0,12.826,6.685a6.087,6.087,0,0,0-1.756.258L9.984,5.666l-.516-.235H8.147V3.394l-.679-.679H5.431V.679L4.752,0H.679L0,.679V3.811l.2.48,6.752,6.752a6.058,6.058,0,0,0-.272,1.91,6.145,6.145,0,0,0,7.373,5.938Zm1.793-9.776a4.828,4.828,0,0,1,1.679,2.72l.009,0a4.8,4.8,0,1,1-9.5,1.1,4.563,4.563,0,0,1,.326-1.806l-.149-.738L1.358,3.53V1.358H4.073V3.394l.679.679H6.789V6.11l.679.679H9.156l1.19,1.38.765.19a4.663,4.663,0,0,1,1.72-.326A4.846,4.846,0,0,1,15.845,9.115ZM14.7,12.822a1.358,1.358,0,0,1-1.027,2.154A1.357,1.357,0,1,1,14.7,12.822Z" transform="translate(17.541 5.987) rotate(135)" fill="#004ace" fill-rule="evenodd"/>
      <path id="Trazado_18369" data-name="Trazado 18369" d="M0,0H18.087V18.087H0Z" transform="translate(-0.978 -0.819)" fill="none"/>
    </g>
  </g>
</svg>
