<svg xmlns="http://www.w3.org/2000/svg" xmlns:xlink="http://www.w3.org/1999/xlink" width="46" height="46" viewBox="0 0 46 46">
  <defs>
    <clipPath id="clip-path">
      <rect id="Rectángulo_5184" data-name="Rectángulo 5184" width="24" height="24" fill="#004ace"/>
    </clipPath>
  </defs>
  <g id="Grupo_14807" data-name="Grupo 14807" transform="translate(-24 -22)">
    <path id="Trazado_18428" data-name="Trazado 18428" d="M23,0A23,23,0,1,1,0,23,23,23,0,0,1,23,0Z" transform="translate(24 22)" fill="#f5f5f5"/>
    <g id="Grupo_8816" data-name="Grupo 8816" transform="translate(35 32)">
      <g id="Grupo_8815" data-name="Grupo 8815" clip-path="url(#clip-path)">
        <path id="Trazado_10994" data-name="Trazado 10994" d="M20.587,24H3.414A3.453,3.453,0,0,1,0,20.532V9.331c0-.019,0-.037,0-.056a1.077,1.077,0,0,1,0-.136A3.5,3.5,0,0,1,1.518,6.433L10.1.59a3.337,3.337,0,0,1,3.791,0l8.585,5.842A3.5,3.5,0,0,1,24,9.138a1.109,1.109,0,0,1,0,.138V20.532a3.5,3.5,0,0,1-1,2.448A3.356,3.356,0,0,1,20.587,24M1.994,20.989A1.5,1.5,0,0,0,3.412,22.04H20.586a1.465,1.465,0,0,0,1.056-.446,1.527,1.527,0,0,0,.365-.6L14.76,16.057l-.866.589a3.335,3.335,0,0,1-3.79,0l-.864-.588Zm14.5-6.11,5.589,3.8V11.075ZM1.92,11.075v7.608l5.589-3.8ZM9.8,14.086l1.366.929a1.457,1.457,0,0,0,1.657,0l1.381-.94.036-.025,7.737-5.265a1.527,1.527,0,0,0-.565-.723L12.828,2.221a1.454,1.454,0,0,0-1.656,0L2.584,8.064a1.514,1.514,0,0,0-.565.722L9.755,14.05c.017.012.034.023.05.035" transform="translate(0 0)" fill="#004ace"/>
      </g>
    </g>
  </g>
</svg>
