<svg xmlns="http://www.w3.org/2000/svg" xmlns:xlink="http://www.w3.org/1999/xlink" width="46" height="46" viewBox="0 0 46 46">
  <defs>
    <clipPath id="clip-path">
      <rect id="Rectángulo_5171" data-name="Rectángulo 5171" width="24" height="24" fill="#004ace"/>
    </clipPath>
  </defs>
  <g id="Grupo_14807" data-name="Grupo 14807" transform="translate(-24 -22)">
    <path id="Trazado_18428" data-name="Trazado 18428" d="M23,0A23,23,0,1,1,0,23,23,23,0,0,1,23,0Z" transform="translate(24 22)" fill="#f5f5f5"/>
    <g id="Grupo_8782" data-name="Grupo 8782" transform="translate(35 33)">
      <g id="Grupo_8781" data-name="Grupo 8781" clip-path="url(#clip-path)">
        <path id="Trazado_10972" data-name="Trazado 10972" d="M12,24a12.014,12.014,0,0,1-1.309-.071l-.05-.006A12.017,12.017,0,0,1,0,12a12.231,12.231,0,0,1,.069-1.294c0-.027,0-.053.009-.078A12.025,12.025,0,0,1,6.586,1.292.854.854,0,0,1,6.75,1.21,12,12,0,0,1,22.706,6.582a.886.886,0,0,1,.086.173,11.988,11.988,0,0,1,0,10.49.886.886,0,0,1-.086.173,12.067,12.067,0,0,1-6.616,5.864.9.9,0,0,1-.183.065A11.939,11.939,0,0,1,12,24m-.307-1.851a10.046,10.046,0,0,0,3.077-.379V19.385A3.388,3.388,0,0,1,18.151,16h3.182a10.158,10.158,0,0,0,0-8h-.717a1.536,1.536,0,0,0-1.539,1.539,3.38,3.38,0,0,1-3.319,3.337,3.385,3.385,0,0,1-3.45-3.319A1.54,1.54,0,0,0,10.77,8h-.617a4.005,4.005,0,0,1-4-4V3.7A10.169,10.169,0,0,0,2.077,9.846H3.386A3.383,3.383,0,0,1,6.77,13.23v1.232A1.54,1.54,0,0,0,8.308,16h0a3.385,3.385,0,0,1,3.383,3.383ZM1.851,11.693c0,.1,0,.2,0,.307a10.172,10.172,0,0,0,8,9.924V19.385a1.538,1.538,0,0,0-1.538-1.539h0a3.388,3.388,0,0,1-3.384-3.384v-1.23a1.54,1.54,0,0,0-1.538-1.539H1.851Zm16.3,6.153a1.536,1.536,0,0,0-1.539,1.539v1.658a10.227,10.227,0,0,0,3.683-3.2ZM10.77,6.154a3.385,3.385,0,0,1,3.384,3.383,1.518,1.518,0,0,0,.471,1.062,1.459,1.459,0,0,0,1.1.43,1.535,1.535,0,0,0,1.508-1.509,3.383,3.383,0,0,1,3.077-3.353A10.146,10.146,0,0,0,8,2.668V4a2.158,2.158,0,0,0,2.154,2.154h.616Z" fill="#004ace"/>
      </g>
    </g>
  </g>
</svg>
