<svg id="edit_hide" data-name="edit / hide" xmlns="http://www.w3.org/2000/svg" xmlns:xlink="http://www.w3.org/1999/xlink" width="18" height="18" viewBox="0 0 18 18">
  <defs>
    <clipPath id="clip-path">
      <rect id="edit_hide_Background_Mask_" data-name="edit / hide (Background/Mask)" width="18" height="18" fill="rgba(0,0,0,0)"/>
    </clipPath>
  </defs>
  <rect id="edit_hide_Background_Mask_2" data-name="edit / hide (Background/Mask)" width="18" height="18" fill="rgba(0,0,0,0)"/>
  <g id="edit_hide-2" data-name="edit / hide" clip-path="url(#clip-path)">
    <path id="coolicon" d="M13.479,13.788h0L10.961,11.27A8.081,8.081,0,0,1,7.592,12H7.4a8.147,8.147,0,0,1-3.461-.777A7.521,7.521,0,0,1,1.66,9.512,7.84,7.84,0,0,1,.075,6.986L0,6.75l.079-.237A8.083,8.083,0,0,1,2.716,3.025L.75,1.059,1.81,0,14.537,12.726l-1.058,1.061Zm-9.7-9.7A6.432,6.432,0,0,0,1.588,6.75,6.229,6.229,0,0,0,7.3,10.5c.064,0,.13,0,.2,0h.054a6.982,6.982,0,0,0,2.261-.376l-1.35-1.35A2.218,2.218,0,0,1,7.5,9,2.272,2.272,0,0,1,5.25,6.75a2.207,2.207,0,0,1,.225-.967l-1.7-1.7ZM13.39,9.462v0L12.345,8.415A6.437,6.437,0,0,0,13.412,6.75,6.221,6.221,0,0,0,7.7,3c-.066,0-.134,0-.2,0-.183,0-.369.007-.551.02L5.625,1.694A8.815,8.815,0,0,1,7.463,1.5H7.6a8.147,8.147,0,0,1,3.461.777A7.521,7.521,0,0,1,13.34,3.988a7.82,7.82,0,0,1,1.585,2.524L15,6.75l-.078.237a7.8,7.8,0,0,1-1.531,2.474Z" transform="translate(1.5 2.252)" fill="#004ace"/>
  </g>
</svg>
