<svg id="edit_show" data-name="edit / show" xmlns="http://www.w3.org/2000/svg" xmlns:xlink="http://www.w3.org/1999/xlink" width="18" height="18" viewBox="0 0 18 18">
  <defs>
    <clipPath id="clip-path">
      <rect id="edit_show_Background_Mask_" data-name="edit / show (Background/Mask)" width="18" height="18" fill="none"/>
    </clipPath>
  </defs>
  <rect id="edit_show_Background_Mask_2" data-name="edit / show (Background/Mask)" width="18" height="18" fill="none"/>
  <g id="edit_show-2" data-name="edit / show" clip-path="url(#clip-path)">
    <path id="coolicon" d="M7.626,11H7.4a7.822,7.822,0,0,1-3.457-.814A7.561,7.561,0,0,1,1.66,8.393,8.359,8.359,0,0,1,.075,5.748L0,5.5l.079-.248A8.4,8.4,0,0,1,1.661,2.606,7.569,7.569,0,0,1,3.941.814,7.832,7.832,0,0,1,7.4,0h.2a7.832,7.832,0,0,1,3.457.814A7.561,7.561,0,0,1,13.34,2.606a8.277,8.277,0,0,1,1.585,2.646L15,5.5l-.078.248a8.107,8.107,0,0,1-2.872,3.813A7.537,7.537,0,0,1,7.626,11ZM7.3,1.569A6.226,6.226,0,0,0,1.588,5.5,6.225,6.225,0,0,0,7.3,9.431c.065,0,.132,0,.2,0s.131,0,.2,0A6.226,6.226,0,0,0,13.412,5.5,6.219,6.219,0,0,0,7.7,1.568c-.066,0-.134,0-.2,0S7.369,1.569,7.3,1.569Zm.18,6.288a2.3,2.3,0,0,1-2.219-1.9A2.4,2.4,0,0,1,6.612,3.3a2.162,2.162,0,0,1,.873-.184A2.236,2.236,0,0,1,9.366,4.163a2.463,2.463,0,0,1-.28,3A2.2,2.2,0,0,1,7.5,7.857Z" transform="translate(2 4)" fill="#004ace"/>
  </g>
</svg>
