<?xml version="1.0" encoding="UTF-8"?>
<svg id="Capa_1" data-name="Capa 1" xmlns="http://www.w3.org/2000/svg" xmlns:xlink="http://www.w3.org/1999/xlink" viewBox="0 0 150.76 143.52">
  <defs>
    <style>
      .cls-1 {
        stroke: #1da1d1;
        stroke-width: .2px;
      }

      .cls-1, .cls-2 {
        stroke-miterlimit: 10;
      }

      .cls-1, .cls-3 {
        fill: #e6f0fd;
      }

      .cls-4 {
        fill: #b4d8fd;
      }

      .cls-5 {
        fill: #29244f;
      }

      .cls-2 {
        stroke: #fff;
        stroke-width: .25px;
      }

      .cls-2, .cls-6, .cls-7, .cls-8 {
        fill: none;
      }

      .cls-9 {
        fill: #004ace;
      }

      .cls-7 {
        clip-path: url(#clippath);
      }

      .cls-10 {
        fill: #c4c4c4;
        opacity: .43;
      }

      .cls-8 {
        stroke: #29244f;
        stroke-linecap: round;
        stroke-linejoin: round;
        stroke-width: .49px;
      }

      .cls-11 {
        fill: #1c294a;
      }
    </style>
    <clipPath id="clippath">
      <circle class="cls-6" cx="78.5" cy="70.5" r="70.5"/>
    </clipPath>
  </defs>
  <g class="cls-7">
    <circle class="cls-10" cx="78.5" cy="70.5" r="70.5"/>
    <g>
      <g>
        <path class="cls-1" d="m126,65.55s0,0,0,0c0,.01,0,.03,0,.04v-.03Z"/>
        <path class="cls-1" d="m128.16,120.01s2.83,3.79,9.63,2.43c6.8-1.36,8.72-5.23,9.42-9.11,0,0-2.38-8.22-4.87-15.45-2.49-7.23-7.68-19.58-7.68-19.58h0c-.21-1.33-.3-2.68-.25-4.02.02-.64.08-1.27.23-1.89.17-.67.46-1.31.67-1.97.66-2.04.21-6.49-.59-8.47h0c-.1-2.83-1.35-5.38-1.75-6.1-.19-.35-.4-.71-.69-.99-.4-.39-1.84.06-2.33,1.01-1.33-2.7-3.23-3.38-5.49-1.96-.86-.9-2.96-.62-3.89-.22-.93.39-1.92,1.67-2.19,2.64l.05.11c-2.57-4.13-5.1-7.51-8.24-11.45-.83-1.04-3.62-.84-3.78-.44-.15.4-.29.96-.23,1.39.13.98.79,2.37,1.29,3.23,3.6,6.1,6.06,8.99,8.41,14.49-.08.8-.06,1.61-.05,2.41.03,1.44.07,2.93.68,4.23.52,1.12,1.42,2.02,2.24,2.95,1.99,2.26,3.67,5.38,4.8,8.16,0,0,1,10.34,2.12,20.38.92,8.25,1.92,16.3,2.5,18.22Zm2.25-54.09v-.03s0,0,0,0c0,0,0,.02,0,.02Z"/>
      </g>
      <path class="cls-1" d="m130.1,56.1c.9,3.49,1.09,6.24.38,9.78m-5.07-8.98c.84,2.79,1.07,5.76.66,8.65m-3.72,5.13c.82-1.25,1.36-2.96.62-4.76-.33-.8-1.35-2.32-1.18-3.16.25-1.29,1.34-2.22,2.16-3.24.7-.88,1.24-1.89,1.58-2.97.13-.41.23-.85.17-1.28-.06-.43-.32-.85-.73-1-.43-.16-.92.01-1.33.21-2.1,1-3.79,2.69-5.35,4.41-.71.78-1.41,1.6-1.83,2.56-.63,1.42-.6,3.03-.57,4.58.03,1.44.07,2.93.68,4.23.52,1.12,1.42,2.02,2.24,2.95,1.99,2.26,3.67,5.38,4.8,8.16m11.12-3.1c-.21-1.33-.3-2.68-.25-4.02.02-.64.08-1.27.23-1.89.17-.67.46-1.31.67-1.97.66-2.04.21-6.49-.59-8.47m-11.46,4.96c1.03.05,1.95-.5,2.78-1.41.69.89,1.12,1.47,2.25,1.42,1.21-.05,1.63-.48,2.11-1.05,1.52,1.76,3.08.86,3.39.31,2.28-4.1-.23-9.25-.83-10.33-.2-.35-.4-.71-.69-.99-.4-.39-1.84.06-2.33,1.01-1.33-2.7-3.23-3.38-5.49-1.96-.86-.9-2.96-.62-3.89-.22-.93.39-1.92,1.67-2.19,2.64m.87,1.45c-2.86-4.77-5.59-8.43-9.06-12.79-.83-1.04-3.62-.84-3.78-.44-.15.4-.29.96-.23,1.39.13.98.79,2.37,1.29,3.23,3.61,6.11,6.06,8.99,8.42,14.51"/>
      <path class="cls-1" d="m123.61,81.38s1,10.34,2.12,20.38c.92,8.25,1.92,16.3,2.5,18.22,0,0,2.83,3.79,9.63,2.43,6.8-1.36,8.72-5.23,9.42-9.11,0,0-2.38-8.22-4.87-15.45-2.49-7.23-7.68-19.58-7.68-19.58"/>
    </g>
    <path class="cls-11" d="m75.48,30.04c-1.48-3.32-4.48-7.88-13.07-10.31-14.19-4.02-21.19,10.16-21.19,10.16-3.63.16-5.36,1.83-5.65,5.17-.24,2.85,1.47,8.1,2.27,10.09l4.78,13.62.66-12.83c1.26-8.57,4.57-12.48,4.57-12.48l11.98-2.81,16.47,21.77.37-14.42c.05-1.83-.1-3.66-.47-5.45-.22-1.04-.46-1.93-.72-2.5Z"/>
    <path class="cls-3" d="m97.84,111.41l-30.64.59-5.36-.04-5.62.44.11.04-30.64-.59,4.62,31.63s-3.23,49.74-3,61.44l35.01,16.33.02-.54,33.88-16.23c.23-11.7-3-61.44-3-61.44l4.62-31.63Z"/>
    <g>
      <path class="cls-3" d="m100.61,102.9h0c-3.81-4.51-23.15-7.73-29.03-8.62-2.7-2.61-2.55-6.69-2.55-6.69v-3.97h0v-7.8c0-3.07-2.81-5.56-6.28-5.56h-.92c-3.47,0-6.28,2.49-6.28,5.56l-.04,5.19-.06,2.6v3.97s.15,4.02-2.48,6.63c-27.55,3.53-30.91,8.61-31.31,9.64-1.59,1.9-2.53,4.25-2.53,6.8,0,.2,0,.41.02.61l-.18.17s9.06,26.4,43.05,26.4,43.69-23.81,43.69-23.81l.04-1.39c.01-.21.02-.41.02-.62,0-3.73-2.02-7.04-5.14-9.12Z"/>
      <path class="cls-4" d="m54.36,77.81h15.52l-.85,1.87.03,3.45s-6.57,3.71-13.6-.31l-.12-2.43-.98-2.58Z"/>
    </g>
    <path class="cls-3" d="m49.42,53.98c.17,1.1-.15,2.06-.7,2.15s-1.14-.74-1.3-1.84.15-2.06.7-2.14,1.14.74,1.31,1.84"/>
    <path class="cls-3" d="m68.65,51.06c.17,1.1-.15,2.06-.7,2.15s-1.14-.74-1.31-1.84.15-2.06.7-2.14,1.14.74,1.3,1.84"/>
    <g>
      <path class="cls-3" d="m63.22,83.68h0c-9.22,1.4-15.74-5.25-17.14-14.46l-5.63-23.03c-1.21-7.92,4.24-15.32,12.16-16.53l4.77-.73c7.92-1.21,15.32,4.24,16.53,12.16l1.46,23.57c1.41,9.27-2.88,17.6-12.14,19.01Z"/>
      <ellipse class="cls-3" cx="41.82" cy="56.98" rx="5.55" ry="4.76" transform="translate(-8.09 6.94) rotate(-8.65)"/>
      <ellipse class="cls-3" cx="74.76" cy="51.97" rx="5.55" ry="4.76" transform="translate(-6.97 11.83) rotate(-8.65)"/>
    </g>
    <g>
      <path class="cls-8" d="m45,50.7s.63-3.06,4.35-3.62c3.72-.57,5.12,2.27,5.12,2.27"/>
      <path class="cls-8" d="m66.14,70.14s-.63,3.06-4.35,3.62-5.12-2.27-5.12-2.27"/>
      <path class="cls-8" d="m60.69,48.31s.63-3.06,4.35-3.62c3.72-.57,5.12,2.27,5.12,2.27"/>
      <path class="cls-8" d="m63.3,64.22s-2.99,2.81-6.17.94"/>
      <ellipse class="cls-5" cx="50.13" cy="55.09" rx="1.52" ry="2.82" transform="translate(-7.71 8.17) rotate(-8.65)"/>
      <ellipse class="cls-5" cx="66.7" cy="52.57" rx="1.52" ry="2.82" transform="translate(-7.15 10.63) rotate(-8.65)"/>
    </g>
    <path class="cls-11" d="m71.95,28.39c-.43.22-15.49-1.59-15.49-1.59l-12.1,5.79s0,0,0,.02c-10.69,4.71-4.17,14.53-4.17,14.53,4.23-3.06,3.16-7.83,3.5-11.44,2.43,2.36,10.95,6.04,20.48,4.4,9.76-1.68,10.29-5.66,10.29-5.66,0,0-2.1-6.25-2.52-6.03Z"/>
    <path class="cls-9" d="m69.89,90.37s30.53,8,33.14,11.49c2.61,3.48-2.53,35.61-2.53,35.61,0,0,1.38,51.12-1.89,51.12-.05,2.03,0,6.25,0,6.25,0,.94-9.39,2.4-36.94,2.4h.02c-27.55,0-36.37-1.5-36.37-2.43,0,0-.11-4.39-.15-6.42-3.27,0-1.44-50.75-1.44-50.75,0,0-5.09-32.3-2.48-35.78,2.62-3.48,33.59-11.49,33.59-11.49l2.35,5h10.83l1.88-5Z"/>
    <path class="cls-9" d="m21.84,101.41c-4.94,2.16-7.15,3.66-11.1,19.76-2.95,12.01-9.66,43.01-10.51,48.15-.85,5.15.39,8.2,8.76,10.07,8.38,1.87,11.29-6.64,12.67-12.7,1.67-7.31,8.38-23.67,9.22-25.82.84-2.15,5.15-17.02,2.08-28.15,0,0-6.93-7.39-11.12-11.31"/>
    <path class="cls-9" d="m77.66,105.53c.75,5.34,1.61,7.87,16.06,15.99,10.78,6.06,38.84,20.83,43.57,23.03,4.73,2.2,8,1.82,12.05-5.74,4.05-7.57-3.37-12.65-8.84-15.61-6.6-3.57-20.55-14.42-22.4-15.81-1.85-1.39-15.02-9.52-26.56-9.55,0,0-8.98,4.69-13.88,7.68"/>
    <path id="Trazado_7587" data-name="Trazado 7587" class="cls-5" d="m58.11,99.63c-.3.27-.36.74-.11,1.06,1.08,1.42,2.82,2.21,4.63,2.07,2.55-.12,3.84-1.5,4.38-2.33.22-.33.17-.77-.13-1.04l-3.72-3.39c-.31-.28-.78-.28-1.08,0l-3.98,3.63Z"/>
    <path id="Trazado_7592" data-name="Trazado 7592" class="cls-9" d="m72.32,105.45l-9.79-9.97c6.37,0,7.03-5.27,7.03-5.27l9.26,3.58-6.5,11.65Z"/>
    <path id="Trazado_7594" data-name="Trazado 7594" class="cls-9" d="m52.75,105.45l9.79-9.97c-6.37,0-7.03-5.27-7.03-5.27l-9.42,3.1,6.67,12.14Z"/>
    <path class="cls-2" d="m46.32,93.5l6.42,11.92,9.05-9.33c.46-.48,1.19-.47,1.64.01l8.87,9.38,6.76-11.39"/>
    <path id="Trazado_7586" data-name="Trazado 7586" class="cls-5" d="m64.57,102.37c-.62.23-1.28.36-1.94.39-.66.04-1.32-.04-1.96-.22h0l-4.31,48.73c-.04.42.06.84.28,1.2l5.07,8.28c.31.5.97.66,1.47.35.14-.09.27-.21.35-.35l5.08-8.3c.21-.35.31-.76.27-1.17l-4.33-48.92"/>
    <path class="cls-9" d="m150.53,131.41c-1.2-5.36-5.54-41.5-12.12-43.82-.71-2.81-.39-3.46-.88-4.78-.81-2.18-13.34-.05-14.08,1.55-.2.42.58,2.88.97,5.41-3.86,3.4,4.55,40.97,6.39,48.27,1.54,6.14,3.69,6.11,10.1,4.97,6.41-1.13,10.95-5.68,9.62-11.6"/>
  </g>
</svg>